<svg width="20" height="20" viewBox="0 0 20 20" fill="none" xmlns="http://www.w3.org/2000/svg">
<path d="M3.33334 6.6665H16.6667V12.6998C16.6667 14.38 16.6667 15.2201 16.3397 15.8618C16.0521 16.4263 15.5931 16.8852 15.0286 17.1729C14.3869 17.4998 13.5468 17.4998 11.8667 17.4998H8.13334C6.45318 17.4998 5.61311 17.4998 4.97137 17.1729C4.40689 16.8852 3.94794 16.4263 3.66032 15.8618C3.33334 15.2201 3.33334 14.38 3.33334 12.6998V6.6665Z" stroke="black" style="stroke:black;stroke-opacity:1;" stroke-width="2" stroke-linecap="round" stroke-linejoin="round"/>
<path d="M16.25 2.5H3.74999C3.67262 2.5 3.63393 2.5 3.60122 2.50107C2.54799 2.53555 1.70221 3.38134 1.66773 4.43456C1.66666 4.46727 1.66666 4.50596 1.66666 4.58333C1.66666 4.66071 1.66666 4.69939 1.66773 4.7321C1.70221 5.78533 2.54799 6.63112 3.60122 6.6656C3.63393 6.66667 3.67262 6.66667 3.74999 6.66667H16.25C16.3274 6.66667 16.366 6.66667 16.3988 6.6656C17.452 6.63112 18.2978 5.78533 18.3322 4.7321C18.3333 4.69939 18.3333 4.66071 18.3333 4.58333C18.3333 4.50596 18.3333 4.46727 18.3322 4.43456C18.2978 3.38134 17.452 2.53555 16.3988 2.50107C16.366 2.5 16.3274 2.5 16.25 2.5Z" stroke="black" style="stroke:black;stroke-opacity:1;" stroke-width="2" stroke-linecap="round" stroke-linejoin="round"/>
<path d="M8.33334 10.8335H11.6667" stroke="black" style="stroke:black;stroke-opacity:1;" stroke-width="2" stroke-linecap="round" stroke-linejoin="round"/>
</svg>
