<?xml version="1.0" encoding="UTF-8"?>
<svg version="1.1" xmlns="http://www.w3.org/2000/svg" width="500" height="500">
<path d="M0 0 C0.5357666 0.42007324 1.0715332 0.84014648 1.62353516 1.27294922 C17.53565552 13.81143978 32.09892448 28.61265517 44 45 C44.68707031 45.90363281 45.37414062 46.80726562 46.08203125 47.73828125 C70.19401617 79.84003632 86.14942608 118.2969391 92 158 C92.17587646 159.1152002 92.35175293 160.23040039 92.53295898 161.37939453 C94.0787791 172.14446108 94.33980554 182.78543503 94.31567383 193.65185547 C94.31252635 196.60031615 94.33602578 199.54775697 94.36132812 202.49609375 C94.52418412 251.3735037 78.40690248 301.1996816 50 341 C49.57525391 341.59989746 49.15050781 342.19979492 48.71289062 342.81787109 C41.73853604 352.60803527 34.16903296 361.56423037 25.78222656 370.17089844 C24.00801167 371.99177762 22.25018486 373.82753929 20.4921875 375.6640625 C13.38523355 383.0094715 5.96612866 389.57891257 -2.23339844 395.67773438 C-3.99821058 396.99866065 -5.73806486 398.34781837 -7.4765625 399.703125 C-17.69184815 407.56028033 -28.65194832 413.92345412 -40 420 C-40.74636719 420.40460449 -41.49273437 420.80920898 -42.26171875 421.22607422 C-76.98172656 439.76396546 -116.65412757 447.46938182 -155.6875 447.3125 C-156.65588806 447.31034485 -157.62427612 447.3081897 -158.62200928 447.30596924 C-172.94447719 447.25486926 -186.9205167 446.84736207 -201 444 C-201.99950684 443.80664062 -202.99901367 443.61328125 -204.02880859 443.4140625 C-251.87124834 433.95793898 -295.00964481 411.99507398 -330 378 C-330.60440918 377.42137207 -331.20881836 376.84274414 -331.83154297 376.24658203 C-340.172186 368.24628659 -347.81061183 360.03936458 -354.69384766 350.75048828 C-356.00663852 348.99110314 -357.34951419 347.25851821 -358.69921875 345.52734375 C-380.63709657 317.01084531 -395.0748499 281.94705853 -402.25 246.8125 C-402.40106201 246.07845947 -402.55212402 245.34441895 -402.70776367 244.58813477 C-405.70004928 228.9921329 -406.40723568 213.53198681 -406.375 197.6875 C-406.37445618 196.67831512 -406.37391235 195.66913025 -406.37335205 194.62936401 C-406.24919662 144.36776729 -391.55909306 94.08121677 -362 53 C-361.349104 52.08855225 -361.349104 52.08855225 -360.68505859 51.15869141 C-353.73241785 41.47269688 -346.31305927 32.53856187 -338 24 C-337.03054443 22.99187256 -337.03054443 22.99187256 -336.04150391 21.96337891 C-326.91988605 12.49988734 -317.67828254 3.68122898 -307 -4 C-306.37802734 -4.45036621 -305.75605469 -4.90073242 -305.11523438 -5.36474609 C-225.66234954 -62.47899321 -119.54688452 -69.59094035 0 0 Z " fill="#FEFEFE" transform="translate(406,53)"/>
<path d="M0 0 C1.74177437 2.61266156 2.71994757 4.65116654 3.78979492 7.55737305 C4.13675919 8.49431 4.48372345 9.43124695 4.84120178 10.39657593 C5.40513893 11.93857162 5.40513893 11.93857162 5.98046875 13.51171875 C6.58120461 15.14096786 6.58120461 15.14096786 7.19407654 16.8031311 C8.29749307 19.79960629 9.39710058 22.79744402 10.49469757 25.79605484 C11.19057123 27.69588487 11.88797018 29.59514797 12.58587646 31.49423218 C20.76967761 53.76534339 28.80878168 76.0877506 36.81561375 98.42297363 C49.13974565 132.80026327 61.70774007 167.08667611 74.34213257 201.3510437 C78.23134002 211.89949887 82.11699187 222.44926134 86 233 C86.41173462 234.11838257 86.82346924 235.23676514 87.24768066 236.38903809 C89.58735999 242.74601187 91.92179516 249.10486307 94.24795532 255.46679688 C94.95180271 257.38962004 95.65732087 259.31183254 96.36459351 261.23339844 C97.32705422 263.84926833 98.28348844 266.46726095 99.23828125 269.0859375 C99.52152252 269.8517514 99.80476379 270.61756531 100.09658813 271.40658569 C101.18380964 274.40572358 102 276.78325229 102 280 C47.88 280 -6.24 280 -62 280 C-62 276.04 -62 272.08 -62 268 C-13.49 268 35.02 268 85 268 C80.38 255.46 75.76 242.92 71 230 C68.05113331 221.87242053 65.10391815 213.74464416 62.17193604 205.61102295 C54.32170604 183.83958904 46.36876762 162.10801897 38.34030151 140.40158081 C30.17926183 118.32389819 22.19634549 96.18420728 14.27206612 74.02064705 C13.33085711 71.38860063 12.38864959 68.75691209 11.44641495 66.1252327 C10.80872186 64.34242833 10.17285903 62.55896962 9.53707886 60.77548218 C6.11237645 48.04084343 6.11237645 48.04084343 0 37 C-3.02636956 45.16462109 -6.04663109 53.33149448 -9.0625 61.5 C-9.41174026 62.4459201 -9.41174026 62.4459201 -9.76803589 63.41094971 C-17.4545051 84.23528474 -25.01748026 105.10159576 -32.5 126 C-40.14570465 147.35356012 -47.89494203 168.66463183 -55.77185059 189.93432617 C-61.04647968 204.18216139 -66.26038629 218.44964193 -71.390625 232.75 C-71.65750122 233.49377396 -71.92437744 234.23754791 -72.19934082 235.00386047 C-74.82475239 242.32257862 -77.44526111 249.64302942 -80.05702591 256.96662903 C-81.01426796 259.64950991 -81.9735663 262.33165278 -82.93321991 265.01367188 C-83.59630989 266.86968036 -84.25622552 268.72682195 -84.91607666 270.58398438 C-85.30954285 271.68355469 -85.70300903 272.783125 -86.10839844 273.91601562 C-86.62294586 275.36022888 -86.62294586 275.36022888 -87.14788818 276.83361816 C-88 279 -88 279 -89 280 C-91.01964199 280.07244053 -93.04167124 280.08377188 -95.0625 280.0625 C-96.16722656 280.05347656 -97.27195313 280.04445313 -98.41015625 280.03515625 C-99.69212891 280.01775391 -99.69212891 280.01775391 -101 280 C-100.41083893 275.91545602 -99.50684436 272.22823241 -98.10839844 268.34838867 C-97.71495743 267.24926651 -97.32151642 266.15014435 -96.91615295 265.01771545 C-96.26929787 263.23584084 -96.26929787 263.23584084 -95.609375 261.41796875 C-95.15251051 260.14857552 -94.69605391 258.87903543 -94.23997498 257.60935974 C-93.00709021 254.18171864 -91.76749448 250.75654031 -90.52642441 247.33185577 C-89.48356035 244.45163775 -88.44457466 241.5700266 -87.40544033 238.6884613 C-79.55932111 216.93530227 -71.58845419 195.22903368 -63.56738281 173.53979492 C-57.9665274 158.38746075 -52.45017451 143.20714191 -47 128 C-39.68884557 107.60262382 -32.22848524 87.262647 -24.71972656 66.93725586 C-18.3235086 49.61958784 -11.98911422 32.28033381 -5.70849609 14.92041016 C-5.3944986 14.05376236 -5.0805011 13.18711456 -4.75698853 12.29420471 C-4.17580588 10.68989124 -3.59564089 9.0852086 -3.01669312 7.48008728 C-1.11231231 2.22462463 -1.11231231 2.22462463 0 0 Z " fill="#040404" transform="translate(251,105)"/>
</svg>
