<?xml version="1.0" encoding="UTF-8"?>
<svg version="1.1" xmlns="http://www.w3.org/2000/svg" width="500" height="500">
<path d="M0 0 C165 0 330 0 500 0 C500 165 500 330 500 500 C335 500 170 500 0 500 C0 335 0 170 0 0 Z " fill="#000000" transform="translate(0,0)"/>
<path d="M0 0 C79.50531735 0 79.50531735 0 96.625 4.625 C97.59083008 4.88297363 98.55666016 5.14094727 99.55175781 5.40673828 C112.78017987 9.13011513 124.38151695 15.2406453 135 24 C135.64195312 24.52851563 136.28390625 25.05703125 136.9453125 25.6015625 C147.40506909 35.12322433 154.37173484 49.78070723 155.16113281 63.87744141 C155.20701015 67.12673023 155.23524592 70.37541494 155.25 73.625 C155.2809375 75.29369141 155.2809375 75.29369141 155.3125 76.99609375 C155.38985015 93.6070387 150.02296865 108.28755844 138.69921875 120.5234375 C130.96216383 127.62226936 122.69549246 133.29847502 113.625 138.5625 C112.55894531 139.20251953 111.49289062 139.84253906 110.39453125 140.50195312 C109.36972656 141.10072266 108.34492188 141.69949219 107.2890625 142.31640625 C106.36818848 142.85724854 105.44731445 143.39809082 104.49853516 143.95532227 C102 145 102 145 99.75073242 144.76293945 C96.34505142 143.27880152 95.51535876 140.25521512 94 137 C95.315744 133.05276799 96.78472493 132.73407752 100.3984375 130.77734375 C102.07873047 129.84438477 102.07873047 129.84438477 103.79296875 128.89257812 C106.13778546 127.60866441 108.48812178 126.33576168 110.83984375 125.06445312 C122.27895831 118.69420673 132.40298649 111.18385257 138 99 C138.41121094 98.11699219 138.82242188 97.23398438 139.24609375 96.32421875 C142.09124042 88.89139615 142.38063801 81.76913825 142.4375 73.875 C142.44765137 72.87388184 142.45780273 71.87276367 142.46826172 70.84130859 C142.29492557 55.97101978 137.19188852 43.77277336 127 33 C96.86033308 7.20884224 46.69316748 12.65458807 12 12 C12 100.44 12 188.88 12 280 C8.04 280 4.08 280 0 280 C0 187.6 0 95.2 0 0 Z " fill="#F7F7F7" transform="translate(184,105)"/>
</svg>
