<?xml version="1.0" encoding="UTF-8"?>
<svg version="1.1" xmlns="http://www.w3.org/2000/svg" width="500" height="500">
<path d="M0 0 C165 0 330 0 500 0 C500 165 500 330 500 500 C335 500 170 500 0 500 C0 335 0 170 0 0 Z " fill="#000000" transform="translate(0,0)"/>
<path d="M0 0 C1.74177437 2.61266156 2.71994757 4.65116654 3.78979492 7.55737305 C4.13675919 8.49431 4.48372345 9.43124695 4.84120178 10.39657593 C5.40513893 11.93857162 5.40513893 11.93857162 5.98046875 13.51171875 C6.58120461 15.14096786 6.58120461 15.14096786 7.19407654 16.8031311 C8.29749307 19.79960629 9.39710058 22.79744402 10.49469757 25.79605484 C11.19057123 27.69588487 11.88797018 29.59514797 12.58587646 31.49423218 C20.76967761 53.76534339 28.80878168 76.0877506 36.81561375 98.42297363 C49.13974565 132.80026327 61.70774007 167.08667611 74.34213257 201.3510437 C78.23134002 211.89949887 82.11699187 222.44926134 86 233 C86.41173462 234.11838257 86.82346924 235.23676514 87.24768066 236.38903809 C89.58735999 242.74601187 91.92179516 249.10486307 94.24795532 255.46679688 C94.95180271 257.38962004 95.65732087 259.31183254 96.36459351 261.23339844 C97.32705422 263.84926833 98.28348844 266.46726095 99.23828125 269.0859375 C99.52152252 269.8517514 99.80476379 270.61756531 100.09658813 271.40658569 C101.18380964 274.40572358 102 276.78325229 102 280 C47.88 280 -6.24 280 -62 280 C-62 276.04 -62 272.08 -62 268 C-13.49 268 35.02 268 85 268 C80.38 255.46 75.76 242.92 71 230 C68.05113331 221.87242053 65.10391815 213.74464416 62.17193604 205.61102295 C54.32170604 183.83958904 46.36876762 162.10801897 38.34030151 140.40158081 C30.17926183 118.32389819 22.19634549 96.18420728 14.27206612 74.02064705 C13.33085711 71.38860063 12.38864959 68.75691209 11.44641495 66.1252327 C10.80872186 64.34242833 10.17285903 62.55896962 9.53707886 60.77548218 C6.11237645 48.04084343 6.11237645 48.04084343 0 37 C-3.02636956 45.16462109 -6.04663109 53.33149448 -9.0625 61.5 C-9.41174026 62.4459201 -9.41174026 62.4459201 -9.76803589 63.41094971 C-17.4545051 84.23528474 -25.01748026 105.10159576 -32.5 126 C-40.14570465 147.35356012 -47.89494203 168.66463183 -55.77185059 189.93432617 C-61.04647968 204.18216139 -66.26038629 218.44964193 -71.390625 232.75 C-71.65750122 233.49377396 -71.92437744 234.23754791 -72.19934082 235.00386047 C-74.82475239 242.32257862 -77.44526111 249.64302942 -80.05702591 256.96662903 C-81.01426796 259.64950991 -81.9735663 262.33165278 -82.93321991 265.01367188 C-83.59630989 266.86968036 -84.25622552 268.72682195 -84.91607666 270.58398438 C-85.30954285 271.68355469 -85.70300903 272.783125 -86.10839844 273.91601562 C-86.62294586 275.36022888 -86.62294586 275.36022888 -87.14788818 276.83361816 C-88 279 -88 279 -89 280 C-91.01964199 280.07244053 -93.04167124 280.08377188 -95.0625 280.0625 C-96.16722656 280.05347656 -97.27195313 280.04445313 -98.41015625 280.03515625 C-99.69212891 280.01775391 -99.69212891 280.01775391 -101 280 C-100.41083893 275.91545602 -99.50684436 272.22823241 -98.10839844 268.34838867 C-97.71495743 267.24926651 -97.32151642 266.15014435 -96.91615295 265.01771545 C-96.26929787 263.23584084 -96.26929787 263.23584084 -95.609375 261.41796875 C-95.15251051 260.14857552 -94.69605391 258.87903543 -94.23997498 257.60935974 C-93.00709021 254.18171864 -91.76749448 250.75654031 -90.52642441 247.33185577 C-89.48356035 244.45163775 -88.44457466 241.5700266 -87.40544033 238.6884613 C-79.55932111 216.93530227 -71.58845419 195.22903368 -63.56738281 173.53979492 C-57.9665274 158.38746075 -52.45017451 143.20714191 -47 128 C-39.68884557 107.60262382 -32.22848524 87.262647 -24.71972656 66.93725586 C-18.3235086 49.61958784 -11.98911422 32.28033381 -5.70849609 14.92041016 C-5.3944986 14.05376236 -5.0805011 13.18711456 -4.75698853 12.29420471 C-4.17580588 10.68989124 -3.59564089 9.0852086 -3.01669312 7.48008728 C-1.11231231 2.22462463 -1.11231231 2.22462463 0 0 Z " fill="#FAFAFA" transform="translate(251,105)"/>
</svg>
