<svg width="24" height="24" viewBox="0 0 24 24" fill="none" xmlns="http://www.w3.org/2000/svg">
<path fill-rule="evenodd" clip-rule="evenodd" d="M10.2202 4.04283C10.1117 4.00986 9.97582 3.99968 9.28741 3.99968H5.2C4.62345 3.99968 4.25118 4.00045 3.96784 4.0236C3.69618 4.0458 3.59546 4.08348 3.54601 4.10867C3.35785 4.20454 3.20487 4.35752 3.109 4.54569C3.0838 4.59513 3.04613 4.69585 3.02393 4.96751C3.00078 5.25085 3 5.62312 3 6.19968V6.99968V9.99968H20.9982C20.9951 9.55415 20.9864 9.20431 20.9625 8.91072C20.9266 8.4723 20.8617 8.2481 20.782 8.0917C20.5903 7.71537 20.2843 7.40941 19.908 7.21766C19.7516 7.13797 19.5274 7.07305 19.089 7.03723C18.6389 7.00045 18.0566 6.99968 17.2 6.99968H13.0155C12.9856 7.00011 12.9557 6.99921 12.9259 6.99697C12.6358 6.97572 12.3801 6.83072 12.2113 6.61456C12.1929 6.59101 12.1756 6.56662 12.1593 6.54146L11.1179 4.97934C10.7361 4.40655 10.6522 4.29916 10.5646 4.22713C10.463 4.14366 10.346 4.08103 10.2202 4.04283ZM21 11.9997H3V16.1997C3 17.0563 3.00078 17.6385 3.03755 18.0886C3.07337 18.5271 3.1383 18.7513 3.21799 18.9077C3.40974 19.284 3.7157 19.5899 4.09202 19.7817C4.24842 19.8614 4.47263 19.9263 4.91104 19.9621C5.36113 19.9989 5.94342 19.9997 6.8 19.9997H17.2C18.0566 19.9997 18.6389 19.9989 19.089 19.9621C19.5274 19.9263 19.7516 19.8614 19.908 19.7817C20.2843 19.5899 20.5903 19.284 20.782 18.9077C20.8617 18.7513 20.9266 18.5271 20.9625 18.0886C20.9992 17.6385 21 17.0563 21 16.1997V11.9997ZM1 6.19968V6.99968V16.1997V16.241V16.241C0.999989 17.046 0.99998 17.7103 1.0442 18.2515C1.09012 18.8136 1.18869 19.3303 1.43598 19.8156C1.81947 20.5683 2.43139 21.1802 3.18404 21.5637C3.66938 21.811 4.18608 21.9096 4.74818 21.9555C5.28937 21.9997 5.95372 21.9997 6.75868 21.9997H6.8H17.2H17.2413C18.0463 21.9997 18.7106 21.9997 19.2518 21.9555C19.8139 21.9096 20.3306 21.811 20.816 21.5637C21.5686 21.1802 22.1805 20.5683 22.564 19.8156C22.8113 19.3303 22.9099 18.8136 22.9558 18.2515C23 17.7103 23 17.046 23 16.241V16.1997V10.7997V10.7584C23 9.95339 23 9.28904 22.9558 8.74785C22.9099 8.18575 22.8113 7.66905 22.564 7.18372C22.1805 6.43107 21.5686 5.81914 20.816 5.43565C20.3306 5.18836 19.8139 5.0898 19.2518 5.04387C18.7106 4.99965 18.0463 4.99966 17.2413 4.99968L17.2 4.99968H13.5352L12.782 3.86994L12.7224 3.7803C12.435 3.34812 12.1819 2.96758 11.8345 2.68204C11.5298 2.43162 11.1788 2.24373 10.8014 2.12913C10.3711 1.99845 9.9141 1.99899 9.39509 1.99959L9.28741 1.99968H5.2L5.16146 1.99968L5.16145 1.99968C4.63431 1.99966 4.17955 1.99964 3.80497 2.03025C3.40963 2.06255 3.01641 2.13386 2.63803 2.32666C2.07354 2.61428 1.6146 3.07322 1.32698 3.63771C1.13419 4.01608 1.06287 4.4093 1.03057 4.80465C0.999969 5.17921 0.999984 5.63396 1 6.16109V6.16113V6.19968Z" fill="black" style="fill:black;fill-opacity:1;"/>
</svg>
