<svg width="10" height="10" viewBox="0 0 10 10" fill="none" xmlns="http://www.w3.org/2000/svg">
<path fill-rule="evenodd" clip-rule="evenodd" d="M2.56728 0.833252H7.43274C7.65238 0.833245 7.84187 0.833238 7.99794 0.84599C8.16267 0.859449 8.32651 0.889164 8.48417 0.969495C8.71937 1.08934 8.91059 1.28056 9.03044 1.51576C9.11077 1.67342 9.14048 1.83726 9.15394 2.00199C9.16669 2.15806 9.16669 2.34754 9.16668 2.56718V7.43266C9.16669 7.6523 9.16669 7.84178 9.15394 7.99785C9.14048 8.16258 9.11077 8.32642 9.03044 8.48408C8.91059 8.71928 8.71937 8.9105 8.48417 9.03034C8.32651 9.11068 8.16267 9.14039 7.99794 9.15385C7.84187 9.1666 7.65239 9.1666 7.43275 9.16659H2.56728C2.34763 9.1666 2.15815 9.1666 2.00208 9.15385C1.83736 9.14039 1.67351 9.11068 1.51586 9.03034C1.28065 8.9105 1.08943 8.71928 0.969586 8.48408C0.889255 8.32642 0.85954 8.16258 0.846082 7.99785C0.83333 7.84178 0.833336 7.65229 0.833344 7.43265V2.56719C0.833336 2.34755 0.83333 2.15806 0.846082 2.00199C0.85954 1.83726 0.889255 1.67342 0.969586 1.51576C1.08943 1.28056 1.28065 1.08934 1.51586 0.969495C1.67351 0.889164 1.83736 0.859449 2.00208 0.84599C2.15815 0.833238 2.34764 0.833245 2.56728 0.833252Z" fill="white" style="fill:white;fill-opacity:1;"/>
</svg>
