<?xml version="1.0" encoding="UTF-8"?>
<svg version="1.1" xmlns="http://www.w3.org/2000/svg" width="626" height="980">
<path d="M0 0 C0.83815247 0.0012085 1.67630493 0.00241699 2.53985596 0.00366211 C41.98951654 0.15766331 80.75340677 13.07501031 110.625 39.375 C111.47578125 40.11621094 112.3265625 40.85742188 113.203125 41.62109375 C115.70971581 43.83934973 118.17354412 46.09606884 120.625 48.375 C121.34042969 49.0246875 122.05585938 49.674375 122.79296875 50.34375 C134.8497593 61.76366091 144.12055164 75.65171502 151.625 90.375 C152.14852051 91.37950195 152.14852051 91.37950195 152.68261719 92.40429688 C164.94534363 116.11600201 169.78364719 141.64429792 169.76544189 168.18536377 C169.76803065 169.56424884 169.77104521 170.94313317 169.7744453 172.32201648 C169.7824591 176.08788209 169.78430171 179.85372859 169.78504276 183.61960173 C169.78690325 187.6907829 169.79445565 191.76195438 169.80117798 195.83312988 C169.81472317 204.72629189 169.82078044 213.61944937 169.82518864 222.51261997 C169.82795829 228.07517402 169.83219701 233.63772635 169.83669281 239.20027924 C169.84888194 254.62796036 169.85918102 270.05564012 169.8625679 285.48332596 C169.86278747 286.46955776 169.86300703 287.45578957 169.86323325 288.47190718 C169.86345153 289.4603886 169.86366981 290.44887002 169.8638947 291.46730542 C169.86433815 293.47006559 169.86478472 295.47282577 169.86523438 297.47558594 C169.8654558 298.46900666 169.86567723 299.46242737 169.86590537 300.48595175 C169.86984784 316.5591924 169.88728662 332.63238756 169.9105939 348.70561066 C169.9343783 365.24263675 169.94677302 381.77964008 169.94793582 398.31668353 C169.94884876 407.58740134 169.95450411 416.85805992 169.97275543 426.12876129 C169.98825263 434.0279131 169.99322084 441.92698737 169.98501733 449.82615152 C169.98114416 453.84713404 169.98187433 457.86796088 169.99607468 461.88892365 C170.16569415 512.9327536 158.16766528 555.07714747 123.625 593.375 C122.94953125 594.12394531 122.2740625 594.87289062 121.578125 595.64453125 C115.56705541 601.95101665 108.60459586 607.19635304 101.625 612.375 C101.05426758 612.80071289 100.48353516 613.22642578 99.89550781 613.66503906 C64.4390119 639.71263141 17.83005595 649.33554496 -25.4375 643.25 C-58.49084579 638.05001881 -90.03769604 623.39201622 -114.375 600.375 C-115.72489846 599.22414139 -117.07890621 598.07808069 -118.4375 596.9375 C-148.63988566 570.42718954 -165.40676183 528.90984735 -168.03618645 489.45630733 C-168.45130041 482.80182839 -168.51735807 476.16158214 -168.50871277 469.49485779 C-168.51097833 468.18266 -168.51324388 466.87046222 -168.51557809 465.51850086 C-168.5216211 461.92355138 -168.52157149 458.32862541 -168.52038372 454.73367202 C-168.52017778 450.83776939 -168.52571666 446.94187393 -168.53044128 443.04597473 C-168.5387072 435.43057527 -168.54149428 427.81518355 -168.54205366 420.19977998 C-168.54253078 414.00181309 -168.54459524 407.80384873 -168.54775429 401.60588264 C-168.55654996 383.98726402 -168.56117539 366.36865146 -168.56042381 348.75003063 C-168.56038386 347.80247902 -168.5603439 346.85492741 -168.56030273 345.87866211 C-168.56026185 344.92993751 -168.56022097 343.9812129 -168.56017885 343.00373907 C-168.55977274 327.64214466 -168.56933631 312.28057481 -168.5834411 296.91898751 C-168.59784942 281.10049107 -168.60470884 265.28200657 -168.60384732 249.46350342 C-168.60351688 240.60088154 -168.6061966 231.7382854 -168.61702538 222.87566948 C-168.62618928 215.32798811 -168.6282578 207.78034414 -168.62151595 200.23265957 C-168.61828011 196.39192329 -168.61808584 192.55125853 -168.6268692 188.71052933 C-168.72842189 141.21897996 -161.96155943 96.20488436 -129.375 59.375 C-128.51003906 58.38886719 -127.64507812 57.40273438 -126.75390625 56.38671875 C-94.33478902 19.92319044 -48.68210427 -0.12996977 0 0 Z " fill="#010101" transform="translate(312.375,-0.375)"/>
<path d="M0 0 C8.17572421 7.30347337 13.27763108 16.11745228 15 27 C15.09639288 29.89998629 15.14374033 32.7764583 15.1418457 35.67626953 C15.14532013 36.54071182 15.14879456 37.40515411 15.15237427 38.29579163 C15.15971736 40.17272425 15.16507044 42.04966549 15.16866493 43.92660904 C15.17588361 46.92533418 15.19159937 49.92390063 15.21000671 52.9225769 C15.26215579 61.4496616 15.31020419 69.97666631 15.32592773 78.50390625 C15.42044495 122.99778666 19.40092277 164.17126063 41 204 C41.34111816 204.64598145 41.68223633 205.29196289 42.03369141 205.95751953 C57.10348619 234.47571991 78.83985842 260.06289067 105 279 C106.56427734 280.14662109 106.56427734 280.14662109 108.16015625 281.31640625 C147.54492117 309.3786613 193.84443371 324.21041853 242.1875 324.25 C242.93366577 324.25067474 243.67983154 324.25134949 244.4486084 324.25204468 C298.23773157 324.17530144 351.18451309 305.32232279 392 270 C392.79277344 269.31808594 393.58554687 268.63617187 394.40234375 267.93359375 C406.50832781 257.27954294 417.41060096 245.96461515 427 233 C427.598125 232.20851563 428.19625 231.41703125 428.8125 230.6015625 C449.61227481 202.10187105 462.90602146 169.34863657 468.25 134.5625 C468.41330811 133.51642578 468.57661621 132.47035156 468.74487305 131.39257812 C471.06207176 115.20551924 471.06762031 98.90537595 471.17578125 82.58984375 C471.18790437 80.9074754 471.20008129 79.22510744 471.21231079 77.54273987 C471.28591999 67.08602968 471.28591999 67.08602968 471.32592773 56.62915039 C471.33606255 52.31350283 471.36548345 47.99834628 471.40724754 43.68289375 C471.41944031 42.05923752 471.4247006 40.43551189 471.42244911 38.81181145 C471.41002777 26.95940783 472.53437921 16.72793012 480 7 C480.680625 6.030625 481.36125 5.06125 482.0625 4.0625 C489.2668458 -4.30952264 499.65164578 -8.3211682 510.3828125 -9.3125 C522.9776126 -9.75539407 533.47182328 -6.33715463 543 2 C553.45142851 12.61473208 556.1405415 25.47025172 556.16113281 39.83325195 C556.16609772 40.67862518 556.17106262 41.52399841 556.17617798 42.39498901 C556.19070566 45.17609501 556.19759242 47.95714362 556.203125 50.73828125 C556.20595238 51.70120779 556.20877975 52.66413433 556.21169281 53.65624046 C556.22666127 58.77074833 556.2359006 63.88522827 556.24023438 68.99975586 C556.2445886 73.17432544 556.2583638 77.34868479 556.28125 81.52319336 C556.44903222 112.74750003 555.42284351 142.49940612 548 173 C547.75797852 173.99676758 547.51595703 174.99353516 547.26660156 176.02050781 C533.45917771 231.5167558 503.78598 279.37198986 463.625 319.5625 C462.75617187 320.44357422 461.88734375 321.32464844 460.9921875 322.23242188 C454.97859158 328.25936157 448.67868638 333.72423688 442 339 C441.40767578 339.47719482 440.81535156 339.95438965 440.20507812 340.44604492 C399.0486648 373.5451329 338.97905816 405 285 405 C285 442.62 285 480.24 285 519 C316.62160125 518.55319317 316.62160125 518.55319317 348.24267578 518.0715332 C354.40014648 517.99450684 354.40014648 517.99450684 357.29537964 517.96232605 C359.28984641 517.93719189 361.28424185 517.90587936 363.27853394 517.86943054 C380.81850331 517.5561093 398.1063176 517.56130712 411.8125 530.25 C419.9020457 539.15432009 423.7376165 549.11175894 424.09375 561.17578125 C423.4148387 574.26179662 418.23252666 584.40284086 408.6875 593.25 C402.06083743 598.63228929 394.48619663 602.11700317 385.93141079 602.13422108 C384.90262859 602.13867892 383.87384639 602.14313676 382.81388897 602.14772969 C381.12087637 602.14745315 381.12087637 602.14745315 379.3936615 602.14717102 C378.19335708 602.15084771 376.99305266 602.1545244 375.75637537 602.1583125 C372.42317146 602.16743179 369.09001676 602.17204738 365.75680506 602.17470181 C362.16221327 602.17860844 358.56763569 602.18818658 354.97305298 602.19691467 C346.29087241 602.21666987 337.60869068 602.22674449 328.92649326 602.23564246 C324.83603565 602.24002727 320.74557934 602.24539361 316.65512276 602.25063133 C303.05399691 602.26764333 289.45287187 602.28213666 275.85173702 602.28938007 C272.32278886 602.29128991 268.79384071 602.29321025 265.26489258 602.29516602 C263.94926667 602.29589163 263.94926667 602.29589163 262.60706247 602.2966319 C248.40451573 602.30492905 234.2020533 602.33026076 219.99954336 602.36274669 C205.41203184 602.39584068 190.82456313 602.41383098 176.23701388 602.41702431 C168.04914501 602.41918734 159.86139905 602.42790546 151.67356682 602.45348549 C144.69912828 602.47522456 137.72484253 602.48322722 130.75037395 602.47351871 C127.19452106 602.46898312 123.63898316 602.47081641 120.08317375 602.49028015 C116.22039435 602.51124067 112.35804547 602.50089706 108.495224 602.48774719 C106.82563398 602.50420106 106.82563398 602.50420106 105.12231487 602.52098733 C94.22309542 602.43166376 84.36179733 599.13662556 76 592 C70.23195544 586.06774065 66.45128723 579.89397582 64 572 C63.80792969 571.3915625 63.61585938 570.783125 63.41796875 570.15625 C61.01441667 557.75661682 63.49311514 545.92675039 70.2109375 535.38671875 C78.00672235 524.98666517 88.40948792 519.91188929 101 518 C104.44528443 517.77400714 107.86403702 517.80129219 111.31494141 517.86474609 C112.30736532 517.87441721 113.29978924 517.88408833 114.32228661 517.89405251 C117.49891453 517.92737213 120.6751321 517.97506175 123.8515625 518.0234375 C125.82705624 518.04628438 127.80256122 518.06817912 129.77807617 518.08911133 C137.06052566 518.17289547 144.34275463 518.2750364 151.625 518.375 C167.91875 518.58125 184.2125 518.7875 201 519 C201 481.38 201 443.76 201 405 C196.71 404.67 192.42 404.34 188 404 C184.22905637 403.38771438 180.54134465 402.73275123 176.8125 401.9375 C175.79567139 401.72198486 174.77884277 401.50646973 173.73120117 401.28442383 C131.50443249 391.96405747 90.58197184 374.03373739 56 348 C55.46358887 347.60103516 54.92717773 347.20207031 54.37451172 346.79101562 C50.52918735 343.92691196 46.74753761 340.99074669 43 338 C41.98292969 337.19046875 40.96585937 336.3809375 39.91796875 335.546875 C31.71226182 328.83448837 24.19647542 321.40705334 16.6875 313.9375 C16.1755307 313.43079773 15.6635614 312.92409546 15.13607788 312.40203857 C8.28922498 305.60968594 1.95327279 298.60609419 -4 291 C-4.54277588 290.31123779 -5.08555176 289.62247559 -5.64477539 288.9128418 C-53.74024477 227.19656962 -70.67091256 156.56783527 -70.3225708 79.64678955 C-70.30905589 75.59157914 -70.31433163 71.53647908 -70.31969929 67.48125648 C-70.323057 63.52956556 -70.31637889 59.57794095 -70.30657005 55.62626266 C-70.30276513 53.76140058 -70.30154989 51.89653108 -70.3031559 50.0316658 C-70.30570757 32.35735679 -70.08768082 16.20758213 -57.25 2.5625 C-41.1791904 -12.47070478 -17.45337773 -13.1456173 0 0 Z " fill="#030303" transform="translate(70,378)"/>
<path d="M0 0 C0.66 0.33 1.32 0.66 2 1 C-6.58 9.58 -15.16 18.16 -24 27 C-24 23.49761163 -23.59014752 23.18651418 -21.2890625 20.7421875 C-20.70785645 20.12029541 -20.12665039 19.49840332 -19.52783203 18.85766602 C-18.89989746 18.20338623 -18.27196289 17.54910645 -17.625 16.875 C-16.99319824 16.20718506 -16.36139648 15.53937012 -15.71044922 14.85131836 C-10.71014898 9.61751891 -5.51685683 4.69059947 0 0 Z " fill="#676767" transform="translate(205,37)"/>
<path d="M0 0 C0.66 0.33 1.32 0.66 2 1 C-1.63 4.63 -5.26 8.26 -9 12 C-9.66 11.67 -10.32 11.34 -11 11 C-9.73347137 9.53792657 -8.46161082 8.08047074 -7.1875 6.625 C-6.47980469 5.81289063 -5.77210938 5.00078125 -5.04296875 4.1640625 C-3 2 -3 2 0 0 Z " fill="#626262" transform="translate(151,903)"/>
<path d="M0 0 C0.66 0.33 1.32 0.66 2 1 C-1.3 4.3 -4.6 7.6 -8 11 C-8.66 10.67 -9.32 10.34 -10 10 C-3.84965831 2.51708428 -3.84965831 2.51708428 0 0 Z " fill="#6D6D6D" transform="translate(559,376)"/>
</svg>
