<svg width="25" height="25" viewBox="0 0 25 25" fill="none" xmlns="http://www.w3.org/2000/svg">
<circle cx="12.5" cy="12.5" r="12.5" fill="black" style="fill:black;fill-opacity:1;"/>
<g clip-path="url(#clip0_1_448)">
<path d="M18.9262 11.1382C19.0939 10.6331 19.1519 10.098 19.0964 9.56876C19.0408 9.03947 18.8729 8.52814 18.6039 8.06892C18.2051 7.37481 17.5962 6.82527 16.865 6.49952C16.1338 6.17377 15.318 6.08865 14.5353 6.25642C14.0906 5.76177 13.5236 5.39284 12.8912 5.18668C12.2588 4.98052 11.5833 4.94438 10.9325 5.08191C10.2817 5.21943 9.67861 5.52577 9.18369 5.97016C8.68878 6.41455 8.31951 6.98134 8.11296 7.61361C7.59151 7.72054 7.09888 7.93754 6.668 8.2501C6.23712 8.56267 5.87792 8.9636 5.6144 9.42611C5.2113 10.1191 5.03902 10.9223 5.12246 11.7196C5.2059 12.5169 5.54075 13.267 6.07859 13.8615C5.91026 14.3663 5.85167 14.9013 5.90675 15.4306C5.96182 15.9599 6.1293 16.4713 6.39796 16.9307C6.79724 17.625 7.40666 18.1747 8.13841 18.5005C8.87015 18.8262 9.68643 18.9112 10.4696 18.7432C10.8229 19.1411 11.257 19.459 11.7429 19.6757C12.2288 19.8924 12.7554 20.003 13.2875 20C14.0897 20.0007 14.8715 19.7465 15.5199 19.274C16.1683 18.8016 16.6498 18.1353 16.8948 17.3714C17.4162 17.2642 17.9088 17.0472 18.3396 16.7346C18.7705 16.422 19.1297 16.0212 19.3934 15.5588C19.7917 14.8669 19.9611 14.0667 19.8772 13.2727C19.7932 12.4787 19.4604 11.7316 18.9262 11.1382ZM13.2875 19.0182C12.6304 19.0193 11.994 18.789 11.4897 18.3677L11.5784 18.3175L14.5648 16.5936C14.6392 16.55 14.7009 16.4878 14.7439 16.4132C14.7869 16.3385 14.8098 16.254 14.8103 16.1678V11.9572L16.0728 12.6876C16.079 12.6908 16.0844 12.6954 16.0886 12.701C16.0927 12.7067 16.0954 12.7132 16.0965 12.7201V16.2092C16.0949 16.9537 15.7985 17.6673 15.272 18.1938C14.7456 18.7202 14.032 19.0167 13.2875 19.0182ZM7.24953 16.4399C6.92001 15.8709 6.8017 15.2039 6.9154 14.5563L7.00415 14.6095L9.99353 16.3334C10.0675 16.3768 10.1517 16.3997 10.2375 16.3997C10.3232 16.3997 10.4074 16.3768 10.4814 16.3334L14.1332 14.2281V15.6859C14.1328 15.6934 14.1308 15.7008 14.1272 15.7074C14.1236 15.7141 14.1185 15.7199 14.1124 15.7243L11.0875 17.4689C10.442 17.8407 9.67524 17.9413 8.95566 17.7483C8.23607 17.5554 7.62245 17.0848 7.24953 16.4399ZM6.46303 9.93473C6.79483 9.36209 7.31855 8.92532 7.94146 8.70173V12.25C7.94034 12.3357 7.96224 12.4202 8.00489 12.4945C8.04753 12.5689 8.10935 12.6305 8.1839 12.6728L11.8179 14.7692L10.5553 15.4995C10.5485 15.5032 10.5409 15.5051 10.5332 15.5051C10.5254 15.5051 10.5178 15.5032 10.511 15.4995L7.49203 13.758C6.84769 13.3845 6.37762 12.7709 6.18476 12.0515C5.99189 11.3322 6.09195 10.5657 6.46303 9.91998V9.93473ZM16.8357 12.3446L13.1899 10.2275L14.4495 9.49998C14.4564 9.49636 14.464 9.49446 14.4717 9.49446C14.4795 9.49446 14.4871 9.49636 14.4939 9.49998L17.5128 11.2445C17.9744 11.5109 18.3507 11.9031 18.5978 12.3752C18.8449 12.8474 18.9526 13.3802 18.9082 13.9112C18.8639 14.4423 18.6694 14.9498 18.3475 15.3745C18.0255 15.7992 17.5894 16.1235 17.09 16.3097V12.7614C17.0874 12.6758 17.0626 12.5924 17.018 12.5193C16.9734 12.4462 16.9106 12.3861 16.8357 12.3446ZM18.0924 10.4552L18.0037 10.4019L15.0202 8.6633C14.9458 8.61962 14.8611 8.5966 14.7748 8.5966C14.6885 8.5966 14.6038 8.61962 14.5293 8.6633L10.8807 10.7685V9.31086C10.8799 9.30345 10.8811 9.29596 10.8842 9.2892C10.8874 9.28243 10.8923 9.27664 10.8984 9.27242L13.9173 7.5308C14.38 7.26425 14.9091 7.13495 15.4425 7.15802C15.976 7.1811 16.4919 7.35559 16.9299 7.6611C17.3678 7.96661 17.7097 8.3905 17.9156 8.88319C18.1215 9.37589 18.1828 9.91702 18.0925 10.4433L18.0924 10.4552ZM10.1916 13.0394L8.92909 12.312C8.92277 12.3082 8.91737 12.303 8.91327 12.2969C8.90916 12.2908 8.90646 12.2838 8.90534 12.2765V8.79636C8.90603 8.26247 9.0587 7.73981 9.3455 7.28948C9.63229 6.83916 10.0414 6.47979 10.5249 6.25338C11.0084 6.02698 11.5463 5.9429 12.0759 6.01097C12.6054 6.07904 13.1046 6.29646 13.5152 6.6378L13.4264 6.68811L10.44 8.41186C10.3657 8.45545 10.304 8.51763 10.261 8.59228C10.2179 8.66694 10.1951 8.7515 10.1946 8.83767L10.1916 13.0394ZM10.8776 11.561L12.5038 10.6236L14.1332 11.561V13.4356L12.5098 14.3729L10.8806 13.4356L10.8776 11.561Z" fill="white" style="fill:white;fill-opacity:1;"/>
</g>
<defs>
<clipPath id="clip0_1_448">
<rect width="15" height="15" fill="white" style="fill:white;fill-opacity:1;" transform="translate(5 5)"/>
</clipPath>
</defs>
</svg>
