<?xml version="1.0" encoding="UTF-8"?>
<svg version="1.1" xmlns="http://www.w3.org/2000/svg" width="500" height="500">
<path d="M0 0 C0.5357666 0.42007324 1.0715332 0.84014648 1.62353516 1.27294922 C17.53565552 13.81143978 32.09892448 28.61265517 44 45 C44.68707031 45.90363281 45.37414062 46.80726562 46.08203125 47.73828125 C70.19401617 79.84003632 86.14942608 118.2969391 92 158 C92.17587646 159.1152002 92.35175293 160.23040039 92.53295898 161.37939453 C94.0787791 172.14446108 94.33980554 182.78543503 94.31567383 193.65185547 C94.31252635 196.60031615 94.33602578 199.54775697 94.36132812 202.49609375 C94.52418412 251.3735037 78.40690248 301.1996816 50 341 C49.57525391 341.59989746 49.15050781 342.19979492 48.71289062 342.81787109 C41.73853604 352.60803527 34.16903296 361.56423037 25.78222656 370.17089844 C24.00801167 371.99177762 22.25018486 373.82753929 20.4921875 375.6640625 C13.38523355 383.0094715 5.96612866 389.57891257 -2.23339844 395.67773438 C-3.99821058 396.99866065 -5.73806486 398.34781837 -7.4765625 399.703125 C-17.69184815 407.56028033 -28.65194832 413.92345412 -40 420 C-40.74636719 420.40460449 -41.49273437 420.80920898 -42.26171875 421.22607422 C-76.98172656 439.76396546 -116.65412757 447.46938182 -155.6875 447.3125 C-156.65588806 447.31034485 -157.62427612 447.3081897 -158.62200928 447.30596924 C-172.94447719 447.25486926 -186.9205167 446.84736207 -201 444 C-201.99950684 443.80664062 -202.99901367 443.61328125 -204.02880859 443.4140625 C-251.87124834 433.95793898 -295.00964481 411.99507398 -330 378 C-330.60440918 377.42137207 -331.20881836 376.84274414 -331.83154297 376.24658203 C-340.172186 368.24628659 -347.81061183 360.03936458 -354.69384766 350.75048828 C-356.00663852 348.99110314 -357.34951419 347.25851821 -358.69921875 345.52734375 C-380.63709657 317.01084531 -395.0748499 281.94705853 -402.25 246.8125 C-402.40106201 246.07845947 -402.55212402 245.34441895 -402.70776367 244.58813477 C-405.70004928 228.9921329 -406.40723568 213.53198681 -406.375 197.6875 C-406.37445618 196.67831512 -406.37391235 195.66913025 -406.37335205 194.62936401 C-406.24919662 144.36776729 -391.55909306 94.08121677 -362 53 C-361.349104 52.08855225 -361.349104 52.08855225 -360.68505859 51.15869141 C-353.73241785 41.47269688 -346.31305927 32.53856187 -338 24 C-337.03054443 22.99187256 -337.03054443 22.99187256 -336.04150391 21.96337891 C-326.91988605 12.49988734 -317.67828254 3.68122898 -307 -4 C-306.37802734 -4.45036621 -305.75605469 -4.90073242 -305.11523438 -5.36474609 C-225.66234954 -62.47899321 -119.54688452 -69.59094035 0 0 Z " fill="#000000" transform="translate(406,53)"/>
<path d="M0 0 C79.50531735 0 79.50531735 0 96.625 4.625 C97.59083008 4.88297363 98.55666016 5.14094727 99.55175781 5.40673828 C112.78017987 9.13011513 124.38151695 15.2406453 135 24 C135.64195312 24.52851563 136.28390625 25.05703125 136.9453125 25.6015625 C147.40506909 35.12322433 154.37173484 49.78070723 155.16113281 63.87744141 C155.20701015 67.12673023 155.23524592 70.37541494 155.25 73.625 C155.2809375 75.29369141 155.2809375 75.29369141 155.3125 76.99609375 C155.38985015 93.6070387 150.02296865 108.28755844 138.69921875 120.5234375 C130.96216383 127.62226936 122.69549246 133.29847502 113.625 138.5625 C112.55894531 139.20251953 111.49289062 139.84253906 110.39453125 140.50195312 C109.36972656 141.10072266 108.34492188 141.69949219 107.2890625 142.31640625 C106.36818848 142.85724854 105.44731445 143.39809082 104.49853516 143.95532227 C102 145 102 145 99.75073242 144.76293945 C96.34505142 143.27880152 95.51535876 140.25521512 94 137 C95.315744 133.05276799 96.78472493 132.73407752 100.3984375 130.77734375 C102.07873047 129.84438477 102.07873047 129.84438477 103.79296875 128.89257812 C106.13778546 127.60866441 108.48812178 126.33576168 110.83984375 125.06445312 C122.27895831 118.69420673 132.40298649 111.18385257 138 99 C138.41121094 98.11699219 138.82242188 97.23398438 139.24609375 96.32421875 C142.09124042 88.89139615 142.38063801 81.76913825 142.4375 73.875 C142.44765137 72.87388184 142.45780273 71.87276367 142.46826172 70.84130859 C142.29492557 55.97101978 137.19188852 43.77277336 127 33 C96.86033308 7.20884224 46.69316748 12.65458807 12 12 C12 100.44 12 188.88 12 280 C8.04 280 4.08 280 0 280 C0 187.6 0 95.2 0 0 Z " fill="#F7F7F7" transform="translate(184,105)"/>
</svg>
