<svg width="20" height="20" viewBox="0 0 20 20" fill="none" xmlns="http://www.w3.org/2000/svg">
<path d="M14.1667 8.33333V6.66666C14.1667 4.36548 12.3012 2.5 10 2.5V2.5C7.69882 2.5 5.83334 4.36548 5.83334 6.66667V8.33333" stroke="black" style="stroke:black;stroke-opacity:1;" stroke-width="2" stroke-linecap="round" stroke-linejoin="round"/>
<path d="M10 12.0835L10 13.7502" stroke="black" style="stroke:black;stroke-opacity:1;" stroke-width="2" stroke-linecap="round" stroke-linejoin="round"/>
<path d="M3.33334 12.9168C3.33334 11.4407 3.33334 10.7027 3.58741 10.1253C3.88962 9.43842 4.43827 8.88978 5.1251 8.58756C5.70251 8.3335 6.44057 8.3335 7.91668 8.3335H12.0833C13.5595 8.3335 14.2975 8.3335 14.8749 8.58756C15.5618 8.88978 16.1104 9.43842 16.4126 10.1253C16.6667 10.7027 16.6667 11.4407 16.6667 12.9168V12.9168C16.6667 14.3929 16.6667 15.131 16.4126 15.7084C16.1104 16.3952 15.5618 16.9439 14.8749 17.2461C14.2975 17.5002 13.5595 17.5002 12.0833 17.5002H7.91667C6.44057 17.5002 5.70251 17.5002 5.1251 17.2461C4.43827 16.9439 3.88962 16.3952 3.58741 15.7084C3.33334 15.131 3.33334 14.3929 3.33334 12.9168V12.9168Z" stroke="black" style="stroke:black;stroke-opacity:1;" stroke-width="2" stroke-linecap="round" stroke-linejoin="round"/>
</svg>
