<svg width="20" height="20" viewBox="0 0 20 20" fill="none" xmlns="http://www.w3.org/2000/svg">
<path d="M3.33334 6.4665C3.33334 4.78635 3.33334 3.94627 3.66032 3.30453C3.94794 2.74005 4.40689 2.2811 4.97137 1.99348C5.61311 1.6665 6.45319 1.6665 8.13334 1.6665H11.8667C13.5468 1.6665 14.3869 1.6665 15.0286 1.99348C15.5931 2.2811 16.0521 2.74005 16.3397 3.30453C16.6667 3.94627 16.6667 4.78635 16.6667 6.4665V13.5332C16.6667 15.2133 16.6667 16.0534 16.3397 16.6951C16.0521 17.2596 15.5931 17.7186 15.0286 18.0062C14.3869 18.3332 13.5468 18.3332 11.8667 18.3332H8.13334C6.45318 18.3332 5.61311 18.3332 4.97137 18.0062C4.40689 17.7186 3.94794 17.2596 3.66032 16.6951C3.33334 16.0534 3.33334 15.2133 3.33334 13.5332V6.4665Z" stroke="black" style="stroke:black;stroke-opacity:1;" stroke-width="2" stroke-linecap="round" stroke-linejoin="round"/>
<path d="M11.6667 9.1665H6.66666" stroke="black" style="stroke:black;stroke-opacity:1;" stroke-width="2" stroke-linecap="round" stroke-linejoin="round"/>
<path d="M8.33332 12.5H6.66666" stroke="black" style="stroke:black;stroke-opacity:1;" stroke-width="2" stroke-linecap="round" stroke-linejoin="round"/>
<path d="M13.3333 5.8335H6.66666" stroke="black" style="stroke:black;stroke-opacity:1;" stroke-width="2" stroke-linecap="round" stroke-linejoin="round"/>
</svg>
